<svg width="33" height="32" viewBox="0 0 33 32" fill="none" xmlns="http://www.w3.org/2000/svg">
<path d="M27.905 4.5H4.90503C4.5072 4.5 4.12567 4.65804 3.84437 4.93934C3.56306 5.22064 3.40503 5.60218 3.40503 6V11.5C3.40503 11.8978 3.56306 12.2794 3.84437 12.5607C4.12567 12.842 4.5072 13 4.90503 13H8.40503V10.5H6.90503C6.77242 10.5 6.64524 10.4473 6.55148 10.3536C6.45771 10.2598 6.40503 10.1326 6.40503 10V7.5C6.40503 7.36739 6.45771 7.24021 6.55148 7.14645C6.64524 7.05268 6.77242 7 6.90503 7H25.905C26.0376 7 26.1648 7.05268 26.2586 7.14645C26.3524 7.24021 26.405 7.36739 26.405 7.5V10C26.405 10.1326 26.3524 10.2598 26.2586 10.3536C26.1648 10.4473 26.0376 10.5 25.905 10.5H24.405V13H27.905C28.3029 13 28.6844 12.842 28.9657 12.5607C29.247 12.2794 29.405 11.8978 29.405 11.5V6C29.405 5.60218 29.247 5.22064 28.9657 4.93934C28.6844 4.65804 28.3029 4.5 27.905 4.5Z" fill="#2C8560"/>
<path d="M7.40503 8H8.40503V9.5H7.40503V8Z" fill="#2C8560"/>
<path d="M13.355 27H19.455C19.553 26.5196 19.7901 26.0785 20.1368 25.7318C20.4836 25.3851 20.9246 25.148 21.405 25.05V8H11.405V25.05C11.8855 25.148 12.3265 25.3851 12.6732 25.7318C13.0199 26.0785 13.257 26.5196 13.355 27ZM16.405 12.5C18.61 12.5 20.405 14.07 20.405 16C20.405 17.93 18.61 19.5 16.405 19.5C14.2 19.5 12.405 17.93 12.405 16C12.405 14.07 14.2 12.5 16.405 12.5Z" fill="#2C8560"/>
<path d="M16.405 18.5C18.0619 18.5 19.405 17.3807 19.405 16C19.405 14.6193 18.0619 13.5 16.405 13.5C14.7482 13.5 13.405 14.6193 13.405 16C13.405 17.3807 14.7482 18.5 16.405 18.5Z" fill="#2C8560"/>
<path d="M22.405 25.5C22.405 25.6326 22.3524 25.7598 22.2586 25.8536C22.1648 25.9473 22.0376 26 21.905 26C21.5072 26 21.1257 26.158 20.8444 26.4393C20.5631 26.7206 20.405 27.1022 20.405 27.5C20.405 27.6326 20.3524 27.7598 20.2586 27.8536C20.1648 27.9473 20.0376 28 19.905 28H12.905C12.7724 28 12.6452 27.9473 12.5515 27.8536C12.4577 27.7598 12.405 27.6326 12.405 27.5C12.405 27.1022 12.247 26.7206 11.9657 26.4393C11.6844 26.158 11.3029 26 10.905 26C10.7724 26 10.6452 25.9473 10.5515 25.8536C10.4577 25.7598 10.405 25.6326 10.405 25.5V8H9.40503V27.5C9.40503 27.8978 9.56306 28.2794 9.84437 28.5607C10.1257 28.842 10.5072 29 10.905 29H21.905C22.2322 28.9988 22.5499 28.8906 22.8099 28.692C23.0699 28.4934 23.2578 28.2153 23.345 27.9C23.3845 27.7703 23.4047 27.6356 23.405 27.5V8H22.405V25.5Z" fill="#2C8560"/>
<path d="M24.405 8H25.405V9.5H24.405V8Z" fill="#2C8560"/>
</svg>
