<svg width="33" height="32" viewBox="0 0 33 32" fill="none" xmlns="http://www.w3.org/2000/svg">
<path d="M27.0317 2.33334H23.1117C21.4184 2.33334 20.405 3.34668 20.405 5.04001V8.96001C20.405 10.6533 21.4184 11.6667 23.1117 11.6667H27.0317C28.725 11.6667 29.7384 10.6533 29.7384 8.96001V5.04001C29.7384 3.34668 28.725 2.33334 27.0317 2.33334ZM27.325 6.74668C27.165 6.90668 26.9517 6.98668 26.7384 6.98668C26.525 6.98668 26.3117 6.90668 26.1517 6.74668L25.9117 6.50668V9.49334C25.9117 9.96001 25.5384 10.3333 25.0717 10.3333C24.605 10.3333 24.2317 9.96001 24.2317 9.49334V6.50668L23.9917 6.74668C23.6717 7.06668 23.1384 7.06668 22.8184 6.74668C22.4984 6.42668 22.4984 5.89334 22.8184 5.57334L24.485 3.90668C24.5517 3.84001 24.645 3.78668 24.7384 3.74668C24.765 3.73334 24.7917 3.73334 24.8184 3.72001C24.885 3.69334 24.9517 3.68001 25.0317 3.68001C25.0584 3.68001 25.085 3.68001 25.1117 3.68001C25.205 3.68001 25.285 3.69334 25.3784 3.73334C25.3917 3.73334 25.3917 3.73334 25.405 3.73334C25.4984 3.77334 25.5784 3.82668 25.645 3.89334C25.6584 3.90668 25.6584 3.90668 25.6717 3.90668L27.3384 5.57334C27.6584 5.89334 27.6584 6.42668 27.325 6.74668Z" fill="#2C8560"/>
<path d="M3.07178 15.28V21.9467C3.07178 25 5.53844 27.4667 8.59178 27.4667H24.2051C27.2584 27.4667 29.7384 24.9867 29.7384 21.9333V15.28C29.7384 14.3867 29.0184 13.6667 28.1251 13.6667H4.68511C3.79178 13.6667 3.07178 14.3867 3.07178 15.28ZM11.0718 23H8.40511C7.85844 23 7.40511 22.5467 7.40511 22C7.40511 21.4533 7.85844 21 8.40511 21H11.0718C11.6184 21 12.0718 21.4533 12.0718 22C12.0718 22.5467 11.6184 23 11.0718 23ZM19.7384 23H14.4051C13.8584 23 13.4051 22.5467 13.4051 22C13.4051 21.4533 13.8584 21 14.4051 21H19.7384C20.2851 21 20.7384 21.4533 20.7384 22C20.7384 22.5467 20.2851 23 19.7384 23Z" fill="#2C8560"/>
<path d="M18.4051 6.14666V10.0533C18.4051 10.9467 17.6851 11.6667 16.7918 11.6667H4.68511C3.77844 11.6667 3.07178 10.92 3.07178 10.0267C3.08511 8.51999 3.68511 7.14666 4.68511 6.14666C5.68511 5.14666 7.07178 4.53333 8.59178 4.53333H16.7918C17.6851 4.53333 18.4051 5.25333 18.4051 6.14666Z" fill="#2C8560"/>
</svg>
