<svg width="229" height="100" viewBox="0 0 229 100" fill="none" xmlns="http://www.w3.org/2000/svg">
<path d="M114.353 12.3861L117.93 13.8354L118.198 12.7311L113.567 10.851L112.393 15.7115L113.445 16.1385L114.353 12.3861Z" fill="#D3AF77"/>
<path d="M146.06 69.0282L149.407 70.5961L149.606 69.5267L145.274 67.4931L144.399 72.2002L145.383 72.6621L146.06 69.0282Z" fill="#2C8560"/>
<path d="M169.749 31.9452L169.586 35.6403L170.649 35.4144L170.864 30.6293L166.186 31.6258L166.137 32.7126L169.749 31.9452Z" fill="#2C8560"/>
<path d="M36.881 59.572L38.2263 63.6255L39.2801 62.9433L37.5416 57.6925L32.9052 60.6977L33.3 61.8902L36.881 59.572Z" fill="#2C8560"/>
<mask id="path-5-inside-1_3285_126210" fill="white">
<ellipse cx="218.051" cy="97.4907" rx="2.28474" ry="2.25928"/>
</mask>
<path d="M217.075 97.4907C217.075 96.9032 217.547 96.489 218.051 96.489V103.011C221.08 103.011 223.597 100.574 223.597 97.4907H217.075ZM218.051 96.489C218.556 96.489 219.028 96.9032 219.028 97.4907H212.506C212.506 100.574 215.023 103.011 218.051 103.011V96.489ZM219.028 97.4907C219.028 98.0783 218.556 98.4924 218.051 98.4924V91.9704C215.023 91.9704 212.506 94.4076 212.506 97.4907H219.028ZM218.051 98.4924C217.547 98.4924 217.075 98.0783 217.075 97.4907H223.597C223.597 94.4076 221.08 91.9704 218.051 91.9704V98.4924Z" fill="#D3AF77" mask="url(#path-5-inside-1_3285_126210)"/>
<mask id="path-7-inside-2_3285_126210" fill="white">
<ellipse rx="2.28479" ry="2.25924" transform="matrix(0.990074 -0.140547 0.140253 0.990116 95.454 70.408)"/>
</mask>
<path d="M94.4875 70.5452C94.405 69.9633 94.814 69.487 95.3135 69.4161L96.2282 75.8736C99.2263 75.448 101.377 72.6813 100.945 69.6285L94.4875 70.5452ZM95.3135 69.4161C95.8129 69.3452 96.3381 69.6888 96.4205 70.2708L89.9632 71.1874C90.3957 74.2402 93.2301 76.2992 96.2282 75.8736L95.3135 69.4161ZM96.4205 70.2708C96.5029 70.8527 96.0939 71.3289 95.5945 71.3998L94.6797 64.9423C91.6816 65.3679 89.5308 68.1347 89.9632 71.1874L96.4205 70.2708ZM95.5945 71.3998C95.095 71.4707 94.5699 71.1271 94.4875 70.5452L100.945 69.6285C100.512 66.5758 97.6779 64.5167 94.6797 64.9423L95.5945 71.3998Z" fill="#83B1D6" mask="url(#path-7-inside-2_3285_126210)"/>
<mask id="path-9-inside-3_3285_126210" fill="white">
<ellipse rx="2.28479" ry="2.25924" transform="matrix(0.990074 -0.140547 0.140253 0.990116 132.918 47.1001)"/>
</mask>
<path d="M131.951 47.2373C131.869 46.6554 132.278 46.1792 132.777 46.1083L133.692 52.5658C136.69 52.1402 138.841 49.3734 138.409 46.3207L131.951 47.2373ZM132.777 46.1083C133.277 46.0373 133.802 46.381 133.884 46.9629L127.427 47.8796C127.86 50.9323 130.694 52.9914 133.692 52.5658L132.777 46.1083ZM133.884 46.9629C133.967 47.5448 133.558 48.0211 133.058 48.092L132.144 41.6344C129.145 42.06 126.995 44.8268 127.427 47.8796L133.884 46.9629ZM133.058 48.092C132.559 48.1629 132.034 47.8192 131.951 47.2373L138.409 46.3207C137.976 43.2679 135.142 41.2088 132.144 41.6344L133.058 48.092Z" fill="#D3AF77" mask="url(#path-9-inside-3_3285_126210)"/>
<path d="M179.542 70.6206C179.542 71.3543 179.745 71.463 180.207 71.6261L180.899 71.8707V69.5608H180.492C179.976 69.5608 179.542 70.0364 179.542 70.6206Z" fill="#9986C1"/>
<path d="M182.935 77.034H183.342C183.872 77.034 184.293 76.5584 184.293 75.9742C184.293 75.2404 184.089 75.1317 183.628 74.9687L182.935 74.7241V77.034Z" fill="#9986C1"/>
<path d="M192.205 64.4384L189.423 67.2238C189.219 67.4277 188.961 67.5228 188.703 67.5228C188.446 67.5228 188.188 67.4277 187.984 67.2238C187.591 66.8298 187.591 66.1776 187.984 65.7836L190.767 62.9981C188.378 60.96 185.297 59.71 181.917 59.71C174.425 59.71 168.344 65.7972 168.344 73.2975C168.344 80.7978 174.425 86.885 181.917 86.885C189.409 86.885 195.49 80.7978 195.49 73.2975C195.49 69.9142 194.241 66.8298 192.205 64.4384ZM184.292 73.0529C185.161 73.3654 186.328 73.9904 186.328 75.9878C186.328 77.6862 184.984 79.0857 183.342 79.0857H182.935V79.4254C182.935 79.9825 182.473 80.4445 181.917 80.4445C181.36 80.4445 180.899 79.9825 180.899 79.4254V79.0857H180.79C178.985 79.0857 177.506 77.5639 177.506 75.6889C177.506 75.1182 177.967 74.6562 178.524 74.6562C179.08 74.6562 179.542 75.1182 179.542 75.6753C179.542 76.4226 180.098 77.034 180.79 77.034H180.899V74.0176L179.542 73.542C178.673 73.2295 177.506 72.6045 177.506 70.6071C177.506 68.9087 178.849 67.5092 180.492 67.5092H180.899V67.1831C180.899 66.626 181.36 66.164 181.917 66.164C182.473 66.164 182.935 66.626 182.935 67.1831V67.5228H183.044C184.849 67.5228 186.328 69.0446 186.328 70.9196C186.328 71.4767 185.867 71.9387 185.31 71.9387C184.754 71.9387 184.292 71.4767 184.292 70.9196C184.292 70.1723 183.736 69.5609 183.044 69.5609H182.935V72.5773L184.292 73.0529Z" fill="#9986C1"/>
<path d="M196.427 59.3159C196.318 59.0714 196.128 58.8676 195.87 58.7589C195.748 58.7181 195.626 58.6909 195.49 58.6909H190.061C189.504 58.6909 189.043 59.1529 189.043 59.71C189.043 60.2671 189.504 60.729 190.061 60.729H193.033L190.767 62.9982C191.283 63.4465 191.758 63.9221 192.205 64.4384L194.472 62.1693V65.145C194.472 65.7021 194.934 66.164 195.49 66.164C196.047 66.164 196.508 65.7021 196.508 65.145V59.71C196.508 59.5741 196.481 59.4518 196.427 59.3159Z" fill="#9986C1"/>
<path d="M94.4547 22.4897H80.8817C76.8098 22.4897 74.0952 24.5279 74.0952 29.2835V34.1206C74.0952 34.6234 74.611 34.9359 75.0589 34.7321C76.3891 34.1206 77.9228 33.8897 79.538 34.175C83.1077 34.8136 85.7273 38.129 85.6323 41.7568C85.6187 42.3275 85.5373 42.8846 85.3879 43.4281C85.2794 43.8493 85.6187 44.2433 86.053 44.2433H94.4547C98.5266 44.2433 101.241 42.2052 101.241 37.4496V29.2835C101.241 24.5279 98.5266 22.4897 94.4547 22.4897ZM87.6682 36.7566C85.7951 36.7566 84.275 35.2348 84.275 33.3597C84.275 31.4847 85.7951 29.9629 87.6682 29.9629C89.5413 29.9629 91.0615 31.4847 91.0615 33.3597C91.0615 35.2348 89.5413 36.7566 87.6682 36.7566ZM97.5086 36.0772C97.5086 36.6343 97.0472 37.0963 96.4907 37.0963C95.9342 37.0963 95.4727 36.6343 95.4727 36.0772V30.6422C95.4727 30.0852 95.9342 29.6232 96.4907 29.6232C97.0472 29.6232 97.5086 30.0852 97.5086 30.6422V36.0772Z" fill="#E28983"/>
<path d="M78.1675 36.0776C75.1678 36.0776 72.7383 38.5098 72.7383 41.5126C72.7383 42.5317 73.0233 43.4964 73.5255 44.3117C74.4621 45.8878 76.1858 46.9476 78.1675 46.9476C80.1491 46.9476 81.8729 45.8878 82.8094 44.3117C83.3116 43.4964 83.5967 42.5317 83.5967 41.5126C83.5967 38.5098 81.1671 36.0776 78.1675 36.0776ZM80.1899 42.5045H79.1855V43.5644C79.1855 44.1214 78.724 44.5834 78.1675 44.5834C77.611 44.5834 77.1495 44.1214 77.1495 43.5644V42.5045H76.1451C75.5886 42.5045 75.1271 42.0426 75.1271 41.4855C75.1271 40.9284 75.5886 40.4664 76.1451 40.4664H77.1495V39.5017C77.1495 38.9446 77.611 38.4826 78.1675 38.4826C78.724 38.4826 79.1855 38.9446 79.1855 39.5017V40.4664H80.1899C80.7463 40.4664 81.2078 40.9284 81.2078 41.4855C81.2078 42.0426 80.7599 42.5045 80.1899 42.5045Z" fill="#E28983"/>
<path d="M227.473 5.33569H204.06C203.655 5.33569 203.266 5.49674 202.98 5.78341C202.694 6.07007 202.533 6.45888 202.533 6.86429V12.4691C202.533 12.8745 202.694 13.2633 202.98 13.55C203.266 13.8367 203.655 13.9977 204.06 13.9977H207.623V11.4501H206.096C205.961 11.4501 205.831 11.3964 205.736 11.3008C205.64 11.2053 205.587 11.0757 205.587 10.9405V8.39288C205.587 8.25775 205.64 8.12814 205.736 8.03259C205.831 7.93703 205.961 7.88335 206.096 7.88335H225.437C225.572 7.88335 225.702 7.93703 225.797 8.03259C225.893 8.12814 225.946 8.25775 225.946 8.39288V10.9405C225.946 11.0757 225.893 11.2053 225.797 11.3008C225.702 11.3964 225.572 11.4501 225.437 11.4501H223.91V13.9977H227.473C227.878 13.9977 228.266 13.8367 228.553 13.55C228.839 13.2633 229 12.8745 229 12.4691V6.86429C229 6.45888 228.839 6.07007 228.553 5.78341C228.266 5.49674 227.878 5.33569 227.473 5.33569Z" fill="#83B1D6"/>
<path d="M206.604 8.90234H207.622V10.4309H206.604V8.90234Z" fill="#83B1D6"/>
<path d="M212.661 28.2645H218.871C218.971 27.7749 219.212 27.3255 219.565 26.9722C219.918 26.6188 220.367 26.3772 220.856 26.2774V8.90234H210.676V26.2774C211.165 26.3772 211.614 26.6188 211.967 26.9722C212.32 27.3255 212.562 27.7749 212.661 28.2645ZM215.766 13.4881C218.011 13.4881 219.838 15.0881 219.838 17.0548C219.838 19.0216 218.011 20.6216 215.766 20.6216C213.522 20.6216 211.694 19.0216 211.694 17.0548C211.694 15.0881 213.522 13.4881 215.766 13.4881Z" fill="#83B1D6"/>
<path d="M215.766 19.6026C217.453 19.6026 218.82 18.462 218.82 17.055C218.82 15.6479 217.453 14.5073 215.766 14.5073C214.079 14.5073 212.712 15.6479 212.712 17.055C212.712 18.462 214.079 19.6026 215.766 19.6026Z" fill="#83B1D6"/>
<path d="M221.874 26.7359C221.874 26.8711 221.82 27.0007 221.725 27.0962C221.63 27.1918 221.5 27.2455 221.365 27.2455C220.96 27.2455 220.572 27.4065 220.285 27.6932C219.999 27.9799 219.838 28.3687 219.838 28.7741C219.838 28.9092 219.784 29.0388 219.689 29.1344C219.594 29.2299 219.464 29.2836 219.329 29.2836H212.203C212.068 29.2836 211.939 29.2299 211.843 29.1344C211.748 29.0388 211.694 28.9092 211.694 28.7741C211.694 28.3687 211.533 27.9799 211.247 27.6932C210.961 27.4065 210.572 27.2455 210.167 27.2455C210.032 27.2455 209.903 27.1918 209.807 27.0962C209.712 27.0007 209.658 26.8711 209.658 26.7359V8.90234H208.64V28.7741C208.64 29.1795 208.801 29.5683 209.088 29.8549C209.374 30.1416 209.762 30.3027 210.167 30.3027H221.365C221.698 30.3014 222.022 30.1912 222.286 29.9888C222.551 29.7864 222.742 29.503 222.831 29.1817C222.871 29.0495 222.892 28.9122 222.892 28.7741V8.90234H221.874V26.7359Z" fill="#83B1D6"/>
<path d="M223.91 8.90234H224.928V10.4309H223.91V8.90234Z" fill="#83B1D6"/>
<path d="M27.1052 3.12769H23.1147C21.3909 3.12769 20.3594 4.16034 20.3594 5.88595V9.88067C20.3594 11.6063 21.3909 12.6389 23.1147 12.6389H27.1052C28.8289 12.6389 29.8605 11.6063 29.8605 9.88067V5.88595C29.8605 4.16034 28.8289 3.12769 27.1052 3.12769ZM27.4038 7.62515C27.2409 7.7882 27.0237 7.86972 26.8065 7.86972C26.5894 7.86972 26.3722 7.7882 26.2093 7.62515L25.965 7.38057V10.4242C25.965 10.8997 25.585 11.2802 25.1099 11.2802C24.6349 11.2802 24.2548 10.8997 24.2548 10.4242V7.38057L24.0105 7.62515C23.6848 7.95125 23.1418 7.95125 22.8161 7.62515C22.4903 7.29905 22.4903 6.75555 22.8161 6.42945L24.5127 4.73101C24.5806 4.66307 24.6756 4.60872 24.7706 4.56796C24.7977 4.55437 24.8249 4.55437 24.852 4.54079C24.9199 4.51361 24.9878 4.50002 25.0692 4.50002C25.0964 4.50002 25.1235 4.50002 25.1506 4.50002C25.2457 4.50002 25.3271 4.51361 25.4221 4.55437C25.4357 4.55437 25.4357 4.55437 25.4492 4.55437C25.5443 4.59514 25.6257 4.64949 25.6936 4.71742C25.7071 4.73101 25.7071 4.73101 25.7207 4.73101L27.4173 6.42945C27.7431 6.75555 27.7431 7.29905 27.4038 7.62515Z" fill="#D6BF83"/>
<path d="M2.71436 16.3213V23.1151C2.71436 26.2266 5.22536 28.7403 8.33358 28.7403H24.2276C27.3358 28.7403 29.8603 26.213 29.8603 23.1015V16.3213C29.8603 15.411 29.1274 14.6772 28.218 14.6772H4.35669C3.4473 14.6772 2.71436 15.411 2.71436 16.3213ZM10.8582 24.1885H8.14355C7.58706 24.1885 7.12558 23.7265 7.12558 23.1694C7.12558 22.6123 7.58706 22.1504 8.14355 22.1504H10.8582C11.4146 22.1504 11.8761 22.6123 11.8761 23.1694C11.8761 23.7265 11.4146 24.1885 10.8582 24.1885ZM19.6806 24.1885H14.2514C13.6949 24.1885 13.2334 23.7265 13.2334 23.1694C13.2334 22.6123 13.6949 22.1504 14.2514 22.1504H19.6806C20.2371 22.1504 20.6986 22.6123 20.6986 23.1694C20.6986 23.7265 20.2371 24.1885 19.6806 24.1885Z" fill="#D6BF83"/>
<path d="M18.3233 7.01372V10.9949C18.3233 11.9052 17.5904 12.6389 16.681 12.6389H4.35669C3.43372 12.6389 2.71436 11.878 2.71436 10.9677C2.72793 9.43229 3.33871 8.03278 4.35669 7.01372C5.37466 5.99465 6.78625 5.36963 8.33358 5.36963H16.681C17.5904 5.36963 18.3233 6.10335 18.3233 7.01372Z" fill="#D6BF83"/>
<path fill-rule="evenodd" clip-rule="evenodd" d="M57.2434 31.5452C57.1147 31.6849 57.0046 31.8058 56.9468 31.87C56.5957 32.2616 55.6058 33.1284 55.1231 33.9648C54.7547 34.6027 54.6796 35.2249 55.2196 35.665C55.7105 36.0651 56.4314 35.9928 57.2166 35.619C58.9064 34.8145 60.9247 32.647 61.3655 31.8346C61.4136 31.7459 61.381 31.6353 61.2923 31.5872C61.2041 31.5393 61.0936 31.5719 61.0455 31.6606C60.6223 32.4401 58.6823 34.5174 57.06 35.2897C56.4259 35.5915 55.8461 35.7053 55.4497 35.382C55.0582 35.0632 55.1715 34.6098 55.4386 34.1473C55.9081 33.3333 56.8761 32.4948 57.2181 32.1136C57.4324 31.8746 58.2755 30.9861 58.3294 30.8925C58.397 30.7754 58.3295 30.6935 58.3053 30.6683C58.2865 30.6487 58.1869 30.5572 58.0522 30.6537C56.1309 32.0292 52.2313 32.809 48.7542 32.2087C45.3077 31.6137 42.2695 29.6524 42.0362 25.5135C42.0303 25.4129 41.9441 25.336 41.8439 25.3414C41.7434 25.3473 41.6665 25.4335 41.6724 25.534C41.9169 29.8707 45.0814 31.9448 48.692 32.5682C51.735 33.0936 55.0902 32.5807 57.2434 31.5452Z" fill="#1A1A1A"/>
<path fill-rule="evenodd" clip-rule="evenodd" d="M41.8961 25.7379C42.1859 26.0555 42.4642 26.3809 42.7788 26.6762C43.6166 27.4629 44.6537 28.1027 45.766 28.406C45.8634 28.4323 45.9634 28.3748 45.9899 28.2779C46.0162 28.1804 45.9587 28.0803 45.8619 28.0538C44.8061 27.7666 43.8231 27.1565 43.0283 26.41C42.6684 26.0719 42.3562 25.6933 42.0193 25.3335C42.0023 25.3157 41.8606 25.1549 41.8214 25.1292C41.7305 25.0687 41.6543 25.1019 41.621 25.1217C41.593 25.138 41.5633 25.1641 41.5412 25.2076C41.5232 25.2434 41.5051 25.3193 41.5025 25.426C41.4929 25.7677 41.5849 26.568 41.5861 26.7009C41.6001 28.2249 41.3577 29.6451 41.1397 31.1467C41.1256 31.2464 41.1946 31.3392 41.294 31.3538C41.3935 31.3683 41.4858 31.299 41.5003 31.1995C41.7211 29.6789 41.9646 28.2404 41.9502 26.6979C41.9497 26.6065 41.9189 26.1005 41.8961 25.7379Z" fill="#1A1A1A"/>
</svg>
