<svg width="533" height="14" viewBox="0 0 533 14" fill="none" xmlns="http://www.w3.org/2000/svg">
<path d="M533 2.66946C530.286 2.58221 527.799 2.58221 525.085 2.58221C522.372 2.58221 519.884 2.49497 517.171 2.40772C511.291 2.23322 505.638 1.97148 499.758 1.79698C488.678 1.44799 477.371 1.09899 466.29 1.01174C456.114 0.837248 445.712 0.75 435.536 0.75C432.822 0.75 430.109 0.75 427.621 0.75C417.445 0.837248 407.269 0.837248 397.093 0.924497C373.349 1.18624 349.378 1.44799 325.634 1.88423C302.342 2.32047 279.05 2.75671 255.985 3.2802C244.678 3.54195 233.145 3.80369 221.838 4.06544C209.401 4.50168 196.964 4.76342 184.752 5.11242C159.199 5.89765 133.872 6.59564 108.319 7.38087C86.1574 8.07886 64.2223 9.03859 42.2872 10.2601C28.2669 11.1326 14.0204 12.0923 0 13.052C16.0556 13.4883 32.3373 13.6628 48.619 13.75C59.2473 13.75 69.8757 13.6628 80.2779 13.5755C87.0619 13.4883 93.846 13.3138 100.856 13.1393C105.153 13.052 109.223 12.8775 113.294 12.703C124.374 12.2668 135.681 11.9178 146.762 11.4815C159.651 11.0453 172.315 10.5218 185.204 10.0856C198.32 9.64933 211.662 9.21309 224.778 8.77685C236.537 8.42785 248.522 8.07886 260.507 7.72987C272.04 7.38087 283.799 7.11913 295.332 6.85738C307.091 6.59564 318.624 6.33389 330.383 6.07215C342.368 5.8104 354.127 5.72315 366.112 5.54866C387.821 5.19966 409.53 5.11242 431.465 5.02517C443.677 5.02517 455.662 4.85067 467.873 4.67617C479.858 4.50168 491.843 4.32718 503.602 4.06544C508.351 3.97819 513.326 3.89094 518.075 3.71644C520.336 3.62919 522.824 3.54195 525.085 3.36745C527.12 3.19295 529.156 2.93121 531.191 2.84396C531.869 2.75671 532.322 2.66946 533 2.66946Z" fill="#2C8560"/>
</svg>
