<svg width="182" height="154" viewBox="0 0 182 154" fill="none" xmlns="http://www.w3.org/2000/svg">
<path d="M99.2907 153.435C139.505 153.435 172.104 120.835 172.104 80.6211C172.104 40.4072 139.505 7.80737 99.2907 7.80737C59.0768 7.80737 26.4771 40.4072 26.4771 80.6211C26.4771 120.835 59.0768 153.435 99.2907 153.435Z" fill="url(#paint0_linear_3285_126341)"/>
<path d="M88.0036 10.74L35.4663 53.0175V119.951C35.4663 130.996 44.4206 139.951 55.4663 139.951H145.267C156.313 139.951 165.267 130.997 165.267 119.951V53.0175L113.132 10.7812C105.811 4.85032 95.3438 4.83316 88.0036 10.74Z" fill="black"/>
<rect x="54.196" y="20.9585" width="92.777" height="115.493" rx="24" fill="url(#paint1_linear_3285_126341)"/>
<path d="M62.1784 38.3713C62.1784 37.0474 63.2517 35.9741 64.5756 35.9741H134.367C135.691 35.9741 136.764 37.0474 136.764 38.3713C136.764 39.6952 135.691 40.7684 134.367 40.7684H64.5756C63.2517 40.7684 62.1784 39.6952 62.1784 38.3713Z" fill="#2C8560"/>
<path d="M62.1784 53.9528C62.1784 52.6289 63.2517 51.5557 64.5756 51.5557H134.367C135.691 51.5557 136.764 52.6289 136.764 53.9528C136.764 55.2767 135.691 56.35 134.367 56.35H64.5756C63.2517 56.35 62.1784 55.2767 62.1784 53.9528Z" fill="#D5D5D5"/>
<path d="M62.1784 69.5344C62.1784 68.2105 63.2517 67.1372 64.5756 67.1372H134.367C135.691 67.1372 136.764 68.2105 136.764 69.5344C136.764 70.8583 135.691 71.9315 134.367 71.9315H64.5756C63.2517 71.9315 62.1784 70.8583 62.1784 69.5344Z" fill="#D5D5D5"/>
<path d="M62.1784 85.1159C62.1784 83.792 63.2517 82.7188 64.5756 82.7188H134.367C135.691 82.7188 136.764 83.792 136.764 85.1159C136.764 86.4398 135.691 87.5131 134.367 87.5131H64.5756C63.2517 87.5131 62.1784 86.4398 62.1784 85.1159Z" fill="#D5D5D5"/>
<path fill-rule="evenodd" clip-rule="evenodd" d="M35.4664 52.8938V119.951C35.4664 130.996 44.4207 139.951 55.4664 139.951H94.9839C114.444 139.951 122.442 114.978 106.604 103.672L35.4664 52.8938Z" fill="url(#paint2_linear_3285_126341)"/>
<path fill-rule="evenodd" clip-rule="evenodd" d="M165.267 52.8938V119.951C165.267 130.996 156.313 139.951 145.267 139.951H46.6648L165.267 52.8938Z" fill="#E1DCEB"/>
<path fill-rule="evenodd" clip-rule="evenodd" d="M165.512 54.0222L51.1401 139.951H46.3666L164.106 52.0854L165.512 54.0222Z" fill="black"/>
<path d="M10.3594 106.891L10.3596 106.891C13.0716 108.641 14.8364 111.057 15.7367 114.161L16.2169 114.022L15.7361 114.159C15.921 114.807 16.5978 115.18 17.2445 114.991L17.2452 114.991C17.8869 114.802 18.2595 114.125 18.0706 113.479C17.0047 109.804 14.8946 106.919 11.6747 104.84L10.3594 106.891ZM10.3594 106.891C9.79644 106.528 9.63191 105.774 9.9945 105.208M10.3594 106.891L9.9945 105.208M9.9945 105.208C10.3553 104.64 11.1096 104.475 11.6746 104.84L9.9945 105.208Z" fill="black" stroke="black"/>
<path d="M49.9164 115.372L49.9167 115.372C50.7117 114.966 50.9867 114.189 50.9171 113.393C50.8562 112.672 50.4812 111.884 50.2825 111.53C50.2824 111.53 50.2824 111.53 50.2823 111.53L49.9164 115.372ZM49.9164 115.372C49.0399 115.82 48.2706 115.798 47.6479 115.486C47.0572 115.19 46.6382 114.633 46.3878 113.965L46.3878 113.965M49.9164 115.372L46.3878 113.965M46.3878 113.965C46.1492 113.328 46.0567 112.553 46.047 111.832M46.3878 113.965L46.047 111.832M26.1566 111.49C24.1104 113.423 23.1259 117.482 22.6136 121.861C21.919 127.793 22.1731 134.328 22.2923 137.396C22.3102 137.855 22.325 138.236 22.3332 138.526L26.1566 111.49ZM26.1566 111.49L26.4999 111.854C26.4999 111.854 26.4998 111.854 26.4998 111.854L26.1566 111.49ZM20.2185 131.35C20.2107 127.907 20.3468 123.811 20.9 120.088C21.2122 117.985 21.6676 115.989 22.3032 114.271C22.937 112.559 23.7623 111.09 24.8345 110.078L24.8346 110.077C31.353 103.923 39.9718 102.494 45.8986 106.72L45.8987 106.72C46.3532 107.044 46.7926 107.392 47.2123 107.763C50.4243 102.551 56.8126 100.525 62.4752 103.125C63.0888 103.406 63.3523 104.13 63.0774 104.739L63.0774 104.739L63.076 104.742C62.7962 105.351 62.0779 105.625 61.4636 105.344L61.463 105.343C56.751 103.18 51.4237 105.021 48.9658 109.593L20.2185 131.35ZM20.2185 131.35C20.3928 131.743 20.5624 132.138 20.7269 132.536C20.7326 133.027 20.7408 133.501 20.7506 133.954C20.5832 133.512 20.4087 133.074 20.228 132.639C20.2229 132.221 20.2195 131.791 20.2185 131.35ZM46.047 111.832C46.0388 111.224 46.0893 110.623 46.1766 110.131L46.047 111.832ZM1.70993 105.273C1.71022 105.273 1.71052 105.272 1.71082 105.272C1.71112 105.272 1.71142 105.271 1.71172 105.271L2.08591 105.603L1.70993 105.273ZM20.1582 138.232C20.1567 138.227 20.1552 138.222 20.1538 138.216C20.1532 138.204 20.1523 138.211 20.1576 138.23L20.639 138.095L20.1582 138.232ZM22.7286 139.663C22.7282 139.664 22.7279 139.664 22.7275 139.665C22.7268 139.667 22.7261 139.669 22.7254 139.67L22.2674 139.47L22.7286 139.663ZM44.491 108.708L44.7812 108.301L44.491 108.708C44.491 108.708 44.491 108.708 44.491 108.708Z" fill="#2C8560" stroke="#2C8560"/>
<path fill-rule="evenodd" clip-rule="evenodd" d="M159.804 25.1531C160.53 22.2103 160.482 19.3764 160.569 16.3915C160.586 15.8086 160.127 15.3239 159.544 15.3064C158.961 15.2888 158.474 15.7489 158.457 16.3318C158.374 19.1622 158.441 21.8556 157.752 24.6509C157.613 25.2163 157.96 25.7887 158.526 25.9256C159.092 26.0661 159.665 25.7184 159.804 25.1531Z" fill="black"/>
<path fill-rule="evenodd" clip-rule="evenodd" d="M165.971 30.8559C170.896 26.3681 175.536 20.5949 178.779 14.7656C179.062 14.2564 178.877 13.6137 178.367 13.3328C177.857 13.0519 177.214 13.2345 176.931 13.7437C173.795 19.3799 169.307 24.9634 164.546 29.3003C164.115 29.6936 164.085 30.3608 164.479 30.7892C164.872 31.2177 165.541 31.2492 165.971 30.8559Z" fill="black"/>
<path fill-rule="evenodd" clip-rule="evenodd" d="M167.219 35.7583C171.723 36.4993 176.366 35.2351 180.461 33.4477C180.995 33.2124 181.239 32.5908 181.006 32.0606C180.772 31.5268 180.148 31.2845 179.614 31.5163C175.884 33.1457 171.666 34.3537 167.563 33.6794C166.988 33.5846 166.444 33.9744 166.349 34.5468C166.254 35.1192 166.644 35.6635 167.219 35.7583Z" fill="black"/>
<path fill-rule="evenodd" clip-rule="evenodd" d="M37.1293 14.7683C37.771 14.5396 38.4462 14.2358 38.967 13.7958C39.5854 13.2732 39.837 12.6002 40.0059 11.8917C40.2227 10.9815 40.3094 10.012 40.5723 9.1003C40.6697 8.76175 40.857 8.63378 40.9374 8.57698C41.1406 8.43352 41.346 8.39518 41.5393 8.40956C41.7683 8.42616 42.0829 8.51282 42.2898 8.89673C42.3193 8.95168 42.3576 9.0354 42.3835 9.1501C42.4023 9.23418 42.4144 9.49712 42.4344 9.60555C42.4841 9.87256 42.5258 10.1396 42.5649 10.4081C42.6951 11.3016 42.77 12.0606 43.1812 12.8815C43.7392 13.996 44.2983 14.6779 45.0565 14.98C45.7897 15.2721 46.6663 15.2171 47.7863 14.9881C47.8929 14.9623 47.9983 14.9402 48.1027 14.9221C48.5965 14.8358 49.0686 15.16 49.1656 15.6519C49.2626 16.1435 48.9487 16.6226 48.4593 16.7306C48.3572 16.7531 48.2565 16.7745 48.1569 16.7941C46.6434 17.1688 44.8913 18.506 43.873 19.6769C43.5592 20.038 43.0997 21.0474 42.6309 21.6913C42.285 22.1663 41.8963 22.4794 41.5699 22.59C41.3512 22.6645 41.1668 22.6531 41.0145 22.6155C40.7932 22.5609 40.6096 22.441 40.4687 22.2504C40.392 22.146 40.3208 22.0062 40.2869 21.8277C40.2706 21.7418 40.2688 21.5235 40.2692 21.4247C40.1737 21.0961 40.0568 20.7752 39.9716 20.4437C39.7684 19.6526 39.3697 19.1518 38.8962 18.4902C38.4532 17.871 37.9775 17.4819 37.2801 17.1714C37.1894 17.1492 36.4573 16.97 36.1988 16.8671C35.8212 16.7163 35.6412 16.4636 35.5759 16.3275C35.4649 16.0967 35.4535 15.895 35.4756 15.7268C35.5084 15.4786 35.6198 15.2662 35.8175 15.0947C35.9399 14.9881 36.1228 14.8845 36.3677 14.8339C36.5569 14.7945 37.0588 14.7716 37.1293 14.7683ZM41.4239 13.479C41.4578 13.5546 41.4939 13.6306 41.5323 13.7073C42.3495 15.3396 43.2634 16.2508 44.3742 16.693C45.485 17.1352 44.4115 16.7074 44.4115 16.7074C43.6683 17.2591 42.9957 17.8758 42.4816 18.4669C42.2699 18.7103 41.9896 19.216 41.6868 19.7345C41.4117 18.8402 40.9618 18.208 40.396 17.417C39.9638 16.8133 39.5109 16.3589 38.9544 15.9886C39.3863 15.767 39.7982 15.5074 40.1571 15.2042C40.7545 14.6993 41.1495 14.1144 41.4239 13.479Z" fill="#2C8560"/>
<defs>
<linearGradient id="paint0_linear_3285_126341" x1="98.7294" y1="-15.9026" x2="100.221" y2="239.808" gradientUnits="userSpaceOnUse">
<stop stop-color="#F2F2F2"/>
<stop offset="1" stop-color="#EFEFEF"/>
</linearGradient>
<linearGradient id="paint1_linear_3285_126341" x1="100.584" y1="20.9585" x2="100.584" y2="136.451" gradientUnits="userSpaceOnUse">
<stop stop-color="white"/>
<stop offset="0.71875" stop-color="#EAEAEA"/>
</linearGradient>
<linearGradient id="paint2_linear_3285_126341" x1="35.4664" y1="52.7541" x2="124.761" y2="152.835" gradientUnits="userSpaceOnUse">
<stop stop-color="#E1DCEB"/>
<stop offset="1" stop-color="#B3AFBA"/>
</linearGradient>
</defs>
</svg>
