<svg width="33" height="32" viewBox="0 0 33 32" fill="none" xmlns="http://www.w3.org/2000/svg">
<path d="M14.0718 13.3733C14.0718 14.0933 14.2718 14.2 14.7251 14.36L15.4051 14.6V12.3333H15.0051C14.4984 12.3333 14.0718 12.8 14.0718 13.3733Z" fill="#2C8560"/>
<path d="M17.405 19.6667H17.805C18.325 19.6667 18.7384 19.2 18.7384 18.6267C18.7384 17.9067 18.5384 17.8 18.085 17.64L17.405 17.4V19.6667Z" fill="#2C8560"/>
<path d="M26.5118 7.30666L23.7784 10.04C23.5784 10.24 23.3251 10.3333 23.0718 10.3333C22.8184 10.3333 22.5651 10.24 22.3651 10.04C21.9784 9.65332 21.9784 9.01332 22.3651 8.62666L25.0984 5.89332C22.7518 3.89332 19.7251 2.66666 16.4051 2.66666C9.04511 2.66666 3.07178 8.63999 3.07178 16C3.07178 23.36 9.04511 29.3333 16.4051 29.3333C23.7651 29.3333 29.7384 23.36 29.7384 16C29.7384 12.68 28.5118 9.65332 26.5118 7.30666ZM18.7384 15.76C19.5918 16.0667 20.7384 16.68 20.7384 18.64C20.7384 20.3067 19.4184 21.68 17.8051 21.68H17.4051V22.0133C17.4051 22.56 16.9518 23.0133 16.4051 23.0133C15.8584 23.0133 15.4051 22.56 15.4051 22.0133V21.68H15.2984C13.5251 21.68 12.0718 20.1867 12.0718 18.3467C12.0718 17.7867 12.5251 17.3333 13.0718 17.3333C13.6184 17.3333 14.0718 17.7867 14.0718 18.3333C14.0718 19.0667 14.6184 19.6667 15.2984 19.6667H15.4051V16.7067L14.0718 16.24C13.2184 15.9333 12.0718 15.32 12.0718 13.36C12.0718 11.6933 13.3918 10.32 15.0051 10.32H15.4051V9.99999C15.4051 9.45332 15.8584 8.99999 16.4051 8.99999C16.9518 8.99999 17.4051 9.45332 17.4051 9.99999V10.3333H17.5118C19.2851 10.3333 20.7384 11.8267 20.7384 13.6667C20.7384 14.2133 20.2851 14.6667 19.7384 14.6667C19.1918 14.6667 18.7384 14.2133 18.7384 13.6667C18.7384 12.9333 18.1918 12.3333 17.5118 12.3333H17.4051V15.2933L18.7384 15.76Z" fill="#2C8560"/>
<path d="M30.6584 2.27999C30.5517 2.03999 30.365 1.83999 30.1117 1.73332C29.9917 1.69332 29.8717 1.66666 29.7384 1.66666H24.405C23.8584 1.66666 23.405 2.11999 23.405 2.66666C23.405 3.21332 23.8584 3.66666 24.405 3.66666H27.325L25.0984 5.89332C25.605 6.33332 26.0717 6.79999 26.5117 7.30666L28.7384 5.07999V7.99999C28.7384 8.54666 29.1917 8.99999 29.7384 8.99999C30.285 8.99999 30.7384 8.54666 30.7384 7.99999V2.66666C30.7384 2.53332 30.7117 2.41332 30.6584 2.27999Z" fill="#2C8560"/>
</svg>
