<svg width="185" height="24" viewBox="0 0 185 24" fill="none" xmlns="http://www.w3.org/2000/svg">
<path d="M176.107 12.2869C175.566 12.401 175.221 12.9315 175.335 13.4719C175.449 14.0123 175.979 14.3579 176.52 14.2438L176.107 12.2869ZM184 11.6429L184.207 12.6214C184.686 12.5203 185.021 12.0871 184.999 11.598C184.977 11.1088 184.604 10.7076 184.118 10.6499L184 11.6429ZM4.00001 6.26538L3.85441 5.27604L3.76189 5.28965L3.67349 5.32019L4.00001 6.26538ZM42.7522 7.99246L42.8187 8.99024L42.7522 7.99246ZM29.3 16.1046L29.5151 17.0812L29.6004 17.0624L29.6812 17.0291L29.3 16.1046ZM58.6065 18.9439L58.5965 19.9439L58.6065 18.9439ZM127.789 21.7832L128.129 22.7235L128.494 22.5917L128.674 22.249L127.789 21.7832ZM176.52 14.2438L184.207 12.6214L183.793 10.6645L176.107 12.2869L176.52 14.2438ZM184.118 10.6499C145.44 6.06214 87.8093 -7.07907 3.85441 5.27604L4.1456 7.25473C87.7664 -5.05122 145.05 8.02994 183.882 12.636L184.118 10.6499ZM3.67349 5.32019C3.01997 5.54595 2.39623 5.80764 1.91389 6.10029C1.67422 6.2457 1.42909 6.42271 1.23033 6.63796C1.03839 6.84583 0.80868 7.17835 0.785629 7.62272C0.760418 8.10871 0.991434 8.49172 1.26026 8.74598C1.51088 8.98301 1.82945 9.14798 2.14746 9.27224C2.7895 9.52313 3.71778 9.71642 4.95114 9.86458C9.8939 10.4583 20.9227 10.4496 42.8187 8.99024L42.6857 6.99467C20.766 8.45565 9.91896 8.44697 5.18967 7.87886C4.00502 7.73655 3.27802 7.56675 2.87539 7.40942C2.67107 7.32958 2.61996 7.27914 2.63454 7.29293C2.66733 7.32394 2.79594 7.47585 2.78294 7.72633C2.77211 7.93519 2.66923 8.02778 2.69974 7.99474C2.72343 7.96908 2.79635 7.90421 2.95132 7.81018C3.25826 7.62395 3.73016 7.41659 4.32652 7.21058L3.67349 5.32019ZM42.8187 8.99024C70.1346 7.16959 94.5793 8.48446 112.256 10.255C121.093 11.1402 128.235 12.139 133.197 12.9161C135.678 13.3046 137.613 13.6378 138.943 13.8737C139.609 13.9918 140.122 14.0854 140.48 14.1501C140.657 14.1822 140.8 14.2078 140.903 14.2254C140.953 14.2342 141 14.2419 141.038 14.2477C141.039 14.2478 141.142 14.2654 141.241 14.2654V12.2654C141.326 12.2654 141.393 12.2786 141.337 12.2702C141.319 12.2674 141.288 12.2624 141.241 12.2544C141.149 12.2384 141.015 12.2144 140.836 12.182C140.481 12.1178 139.962 12.0233 139.292 11.9045C137.952 11.6667 136.003 11.3312 133.506 10.9402C128.514 10.1582 121.334 9.15434 112.455 8.26497C94.6989 6.48643 70.1394 5.16483 42.6857 6.99467L42.8187 8.99024ZM141.241 14.2654C141.261 14.2652 141.352 14.2594 141.423 14.249C142.23 13.4304 141.584 12.3252 141.425 12.2819C141.399 12.2774 141.362 12.2722 141.35 12.2709C141.344 12.2701 141.333 12.2691 141.327 12.2686C141.31 12.2669 141.288 12.2653 141.27 12.264C141.229 12.261 141.167 12.2568 141.086 12.2515C140.924 12.2409 140.677 12.2253 140.351 12.2055C139.698 12.1659 138.725 12.109 137.472 12.0395C134.965 11.9007 131.336 11.712 126.903 11.5122C118.039 11.1126 105.957 10.6686 93.2118 10.4909C80.4697 10.3133 67.0507 10.4018 55.516 11.0692C44.0347 11.7336 34.2615 12.9773 28.9188 15.1801L29.6812 17.0291C34.6679 14.9731 44.112 13.7325 55.6315 13.0659C67.0977 12.4024 80.463 12.3134 93.1839 12.4907C105.902 12.668 117.962 13.1112 126.813 13.5102C131.239 13.7097 134.861 13.898 137.361 14.0365C138.612 14.1057 139.581 14.1625 140.23 14.2019C140.554 14.2216 140.798 14.2369 140.956 14.2472C141.035 14.2524 141.091 14.2562 141.124 14.2586C141.143 14.26 141.147 14.2604 141.144 14.2601C141.142 14.26 141.135 14.2592 141.13 14.2587C141.121 14.2576 141.086 14.2527 141.06 14.2484C140.902 14.2052 140.257 13.1001 141.063 12.2817C141.134 12.2713 141.224 12.2656 141.241 12.2654V14.2654ZM29.0849 15.1281C28.6018 15.2345 28.1267 15.3681 27.7581 15.5385C27.5805 15.6205 27.3558 15.7431 27.1683 15.9278C26.9772 16.1161 26.703 16.5024 26.8024 17.0301C26.8901 17.4955 27.2198 17.7637 27.4062 17.8884C27.6177 18.0299 27.8684 18.1358 28.1209 18.2212C28.6333 18.3945 29.3583 18.5507 30.3154 18.6955C34.1458 19.2754 42.4601 19.7817 58.5965 19.9439L58.6166 17.944C42.4677 17.7817 34.2871 17.274 30.6147 16.7181C29.6961 16.579 29.1075 16.4436 28.7619 16.3267C28.6789 16.2986 28.6179 16.2742 28.575 16.2547C28.531 16.2347 28.5153 16.2241 28.5183 16.2261C28.5192 16.2267 28.5596 16.2531 28.6096 16.3136C28.6618 16.3769 28.7363 16.4926 28.7678 16.6597C28.841 17.0479 28.628 17.2973 28.572 17.3524C28.5198 17.4039 28.5044 17.3968 28.597 17.354C28.7688 17.2747 29.0774 17.1776 29.5151 17.0812L29.0849 15.1281ZM58.5965 19.9439C78.8274 20.1472 96.527 19.9435 109.036 20.1466C115.283 20.248 120.158 20.4507 123.341 20.8488C124.953 21.0504 126.032 21.2915 126.628 21.5481C126.939 21.6822 126.976 21.7618 126.944 21.7139C126.915 21.6716 126.878 21.5905 126.875 21.4841C126.872 21.3831 126.901 21.3228 126.904 21.3174L128.674 22.249C128.797 22.0154 128.883 21.7364 128.874 21.4259C128.865 21.11 128.759 20.8285 128.601 20.5944C128.31 20.1631 127.843 19.8941 127.419 19.7113C126.543 19.3341 125.22 19.0682 123.589 18.8643C120.286 18.4512 115.313 18.2482 109.068 18.1468C96.5948 17.9443 78.7421 18.1462 58.6166 17.944L58.5965 19.9439ZM127.449 20.8428C126.407 21.2199 123.513 22 120.583 22V24C123.802 24 126.93 23.1576 128.129 22.7235L127.449 20.8428Z" fill="#2C8560"/>
</svg>
