<svg width="221" height="183" viewBox="0 0 221 183" fill="none" xmlns="http://www.w3.org/2000/svg">
<path d="M116.82 183C157.78 183 190.985 149.795 190.985 108.835C190.985 67.8743 157.78 34.6694 116.82 34.6694C75.8594 34.6694 42.6545 67.8743 42.6545 108.835C42.6545 149.795 75.8594 183 116.82 183Z" fill="url(#paint0_linear_3286_126276)"/>
<path d="M74.2612 123.245L102.063 46.9028L173.648 122.593L106.825 153.269C87.4538 162.161 66.9676 143.273 74.2612 123.245Z" fill="#E1DCEB"/>
<path d="M147.003 76.4475C156.882 86.9724 164.841 97.4033 169.725 105.752C172.17 109.929 173.83 113.562 174.585 116.409C174.962 117.833 175.106 119.035 175.023 119.998C174.94 120.956 174.637 121.644 174.151 122.099C173.665 122.555 172.96 122.814 171.998 122.836C171.032 122.858 169.842 122.639 168.445 122.172C165.651 121.238 162.131 119.351 158.117 116.647C150.094 111.244 140.188 102.64 130.31 92.1154C120.432 81.5904 112.473 71.1595 107.588 62.8111C105.144 58.6333 103.483 55.0013 102.729 52.1538C102.351 50.7297 102.208 49.5278 102.291 48.5652C102.373 47.6067 102.676 46.9193 103.162 46.4634C103.648 46.0074 104.353 45.7484 105.315 45.7266C106.281 45.7048 107.471 45.9243 108.869 46.3911C111.663 47.3245 115.182 49.2114 119.197 51.9155C127.219 57.3192 137.125 65.9226 147.003 76.4475Z" fill="black" stroke="black"/>
<mask id="mask0_3286_126276" style="mask-type:alpha" maskUnits="userSpaceOnUse" x="72" y="46" width="102" height="110">
<path d="M74.2612 123.244L102.063 46.9026L173.648 122.593L106.825 153.268C87.4538 162.161 66.9676 143.272 74.2612 123.244Z" fill="#E1DCEB"/>
</mask>
<g mask="url(#mask0_3286_126276)">
<path fill-rule="evenodd" clip-rule="evenodd" d="M100.471 108.885C86.129 90.1023 78.8723 67.71 76.5317 52.6765L88.0808 50.8784C90.1876 64.4106 96.8374 84.8669 109.761 101.791C122.563 118.557 141.292 131.631 168.003 131.631V143.319C136.83 143.319 114.935 127.827 100.471 108.885Z" fill="#2C8560"/>
<path fill-rule="evenodd" clip-rule="evenodd" d="M102.01 105.293C87.6681 86.5108 80.4114 64.1185 78.0708 49.0849L89.6199 47.2869C91.7267 60.819 98.3765 81.2753 111.3 98.1999C124.102 114.965 142.831 128.039 169.543 128.039V139.727C138.37 139.727 116.474 124.235 102.01 105.293Z" fill="white"/>
<path fill-rule="evenodd" clip-rule="evenodd" d="M83.5368 132.491C69.1946 113.708 61.9378 91.3158 59.5973 76.2822L71.1464 74.4841C73.2532 88.0163 79.903 108.473 92.8264 125.397C105.628 142.162 124.358 155.236 151.069 155.236V166.924C119.896 166.924 98.0007 151.432 83.5368 132.491Z" fill="white"/>
</g>
<circle cx="133.664" cy="147.681" r="20.6262" fill="#2C8560"/>
<path fill-rule="evenodd" clip-rule="evenodd" d="M142.01 141.422C142.808 142.235 142.797 143.54 141.985 144.339L132.193 153.965C131.39 154.753 130.103 154.753 129.301 153.965L125.342 150.073C124.53 149.275 124.519 147.969 125.317 147.157C126.116 146.344 127.422 146.333 128.234 147.131L130.747 149.601L139.093 141.397C139.905 140.599 141.211 140.61 142.01 141.422Z" fill="white"/>
<path d="M173.853 49.1463L173.853 49.146C175.067 46.0636 175.55 42.991 176.06 39.7504C176.147 39.1977 176.235 38.6401 176.327 38.0767L173.853 49.1463ZM173.853 49.1463C173.677 49.5952 173.168 49.817 172.72 49.6399L172.717 49.6388C172.268 49.4647 172.047 48.9576 172.223 48.5096L172.223 48.5095M173.853 49.1463L172.223 48.5095M172.223 48.5095C173.394 45.5326 173.857 42.5495 174.324 39.5402M172.223 48.5095L174.324 39.5402M175.604 37.0735C175.128 36.9951 174.678 37.3187 174.599 37.7959L175.604 37.0735ZM175.604 37.0735C176.083 37.1523 176.405 37.6013 176.327 38.0766L175.604 37.0735ZM174.324 39.5402C174.414 38.9599 174.504 38.3786 174.599 37.7962L174.324 39.5402Z" fill="#2C8560" stroke="#2C8560"/>
<path d="M181.004 57.3423L181.003 57.3427C180.607 57.6176 180.061 57.519 179.784 57.1229C179.51 56.73 179.606 56.1866 180.003 55.9107C186.939 51.1093 193.733 44.6442 198.788 37.8694L198.788 37.8691C199.075 37.4837 199.625 37.4026 200.014 37.6908C200.401 37.9764 200.482 38.5229 200.194 38.9095C195.036 45.8242 188.091 52.433 181.004 57.3423Z" fill="#2C8560" stroke="#2C8560"/>
<path d="M199.997 62.0461L199.997 62.0452C199.864 61.5829 199.379 61.3133 198.913 61.4451C193.787 62.9115 188.023 63.7709 182.709 62.1496L182.709 62.1496C182.246 62.0081 181.756 62.2697 181.616 62.7269L181.616 62.7272C181.476 63.1838 181.735 63.6744 182.197 63.8158L199.997 62.0461ZM199.997 62.0461C200.129 62.502 199.865 62.9865 199.397 63.1221M199.997 62.0461L199.397 63.1221M199.397 63.1221C193.842 64.709 187.745 65.5093 182.198 63.8158L199.397 63.1221Z" fill="#2C8560" stroke="#2C8560"/>
<circle cx="182.481" cy="74.1135" r="4.12525" fill="#CCC6D9"/>
<circle cx="148.102" cy="31.4861" r="4.12525" fill="#CCC6D9"/>
<path d="M156.038 49.6788C155.682 48.2047 153.585 48.2047 153.229 49.6788L152.768 51.5882C152.641 52.115 152.23 52.5263 151.703 52.6535L149.794 53.1144C148.32 53.4702 148.32 55.567 149.794 55.9228L151.703 56.3837C152.23 56.5109 152.641 56.9222 152.768 57.449L153.229 59.3584C153.585 60.8325 155.682 60.8325 156.038 59.3584L156.499 57.449C156.626 56.9222 157.037 56.5109 157.564 56.3837L159.473 55.9228C160.948 55.567 160.948 53.4702 159.473 53.1144L157.564 52.6535C157.037 52.5263 156.626 52.115 156.499 51.5882L156.038 49.6788Z" fill="#2C8560"/>
<path fill-rule="evenodd" clip-rule="evenodd" d="M138.454 17.9484C138.87 19.0086 138.349 20.2059 137.289 20.6228C134.263 21.8127 130.385 25.6456 127.796 30.4163C125.825 34.0477 124.867 37.7151 125.269 40.7164C126.48 38.9881 127.93 37.5703 129.611 36.6596C132.625 35.027 136.064 35.2003 139.393 37.469C142.302 39.4513 143.488 42.272 143.174 45.0825C142.874 47.7697 141.235 50.1989 139.011 51.725C136.754 53.274 133.757 53.9882 130.665 53.0415C128.913 52.5049 127.232 51.4672 125.694 49.8915C124.227 55.6038 124.279 62.759 126.705 69.0874C127.112 70.1511 126.58 71.3438 125.517 71.7515C124.453 72.1591 123.26 71.6273 122.853 70.5635C119.654 62.2176 120.07 52.6859 122.678 45.7438C122.604 45.6099 122.53 45.4742 122.457 45.3367C119.714 40.1564 121.356 33.6324 124.17 28.4485C127.005 23.2246 131.501 18.466 135.779 16.7837C136.839 16.3668 138.037 16.8883 138.454 17.9484ZM127.31 45.3891C128.867 47.6021 130.484 48.6716 131.873 49.0971C133.623 49.6329 135.329 49.2486 136.677 48.3237C138.058 47.3759 138.926 45.9559 139.074 44.6243C139.209 43.4159 138.787 42.0481 137.07 40.878C134.894 39.3949 133.106 39.4579 131.576 40.2869C130.05 41.1134 128.539 42.8432 127.31 45.3891Z" fill="#FFC700"/>
<path fill-rule="evenodd" clip-rule="evenodd" d="M205.037 98.6187C183.417 90.5828 166.871 100.575 161.521 106.227C160.216 107.606 158.04 107.665 156.661 106.36C155.283 105.055 155.223 102.879 156.528 101.5C163.323 94.3228 182.664 82.9678 207.433 92.174C209.212 92.8355 210.119 94.8144 209.457 96.594C208.796 98.3737 206.817 99.2801 205.037 98.6187Z" fill="#FFC700"/>
<path fill-rule="evenodd" clip-rule="evenodd" d="M183.042 105.843C183.524 105.666 184.032 105.431 184.423 105.091C184.888 104.688 185.078 104.168 185.205 103.62C185.368 102.917 185.433 102.168 185.63 101.464C185.704 101.202 185.845 101.103 185.905 101.059C186.058 100.948 186.212 100.919 186.358 100.93C186.53 100.943 186.766 101.01 186.922 101.306C186.944 101.349 186.973 101.413 186.992 101.502C187.006 101.567 187.016 101.77 187.03 101.854C187.068 102.06 187.099 102.267 187.129 102.474C187.227 103.164 187.283 103.751 187.592 104.385C188.012 105.246 188.432 105.773 189.002 106.006C189.553 106.232 190.212 106.19 191.054 106.013C191.135 105.993 191.214 105.976 191.292 105.962C191.664 105.895 192.018 106.145 192.091 106.525C192.164 106.905 191.928 107.275 191.56 107.359C191.484 107.376 191.408 107.393 191.333 107.408C190.195 107.697 188.878 108.731 188.112 109.635C187.876 109.914 187.531 110.694 187.178 111.192C186.918 111.559 186.626 111.8 186.381 111.886C186.216 111.944 186.077 111.935 185.963 111.906C185.797 111.863 185.659 111.771 185.553 111.624C185.495 111.543 185.441 111.435 185.416 111.297C185.404 111.231 185.402 111.062 185.403 110.986C185.331 110.732 185.243 110.484 185.179 110.228C185.026 109.616 184.726 109.229 184.37 108.718C184.037 108.24 183.68 107.939 183.155 107.699C183.087 107.682 182.537 107.544 182.342 107.464C182.058 107.348 181.923 107.153 181.874 107.047C181.79 106.869 181.782 106.713 181.798 106.583C181.823 106.392 181.907 106.227 182.056 106.095C182.148 106.013 182.285 105.933 182.469 105.893C182.611 105.863 182.989 105.845 183.042 105.843ZM186.271 104.847C186.296 104.905 186.323 104.964 186.352 105.023C186.967 106.284 187.654 106.988 188.489 107.33L188.517 107.341C187.958 107.767 187.452 108.244 187.066 108.7C186.907 108.888 186.696 109.279 186.468 109.68C186.262 108.989 185.923 108.5 185.498 107.889C185.173 107.423 184.832 107.072 184.414 106.786C184.739 106.614 185.048 106.414 185.318 106.18C185.767 105.789 186.064 105.338 186.271 104.847Z" fill="#2C8560"/>
<path d="M63.49 107.844L63.4899 107.844C60.834 110.233 59.3297 113.184 58.8916 116.733L58.3954 116.672L58.8919 116.731C58.8074 117.441 58.1617 117.945 57.4526 117.856L57.452 117.856C56.7482 117.767 56.2439 117.12 56.3329 116.412C56.8485 112.236 58.635 108.736 61.7674 105.917L63.49 107.844ZM63.49 107.844C64.0183 107.369 64.0637 106.552 63.5885 106.02M63.49 107.844L63.5885 106.02M63.5885 106.02C63.1152 105.486 62.2975 105.44 61.7675 105.917L63.5885 106.02Z" fill="#2C8560" stroke="#2C8560"/>
<path d="M47.1307 115.657C49.6972 117.403 51.4799 121.65 52.8047 126.328C54.5998 132.665 55.4677 139.825 55.8753 143.187C55.9362 143.689 55.9868 144.107 56.0287 144.425L47.1307 115.657ZM47.1307 115.657L46.8495 116.07C46.8495 116.07 46.8496 116.07 46.8496 116.07L47.1307 115.657ZM25.4854 121.884L25.4854 121.884C25.3314 122.647 24.978 123.314 24.4 123.729L25.4854 121.884ZM25.4854 121.884C25.6319 121.157 25.5978 120.304 25.4825 119.52M25.4854 121.884L25.4825 119.52M25.4825 119.52C25.3836 118.848 25.2206 118.196 25.0369 117.674L25.4825 119.52ZM22.0245 117.581C21.5924 118.333 21.2188 119.123 20.917 119.943C20.7632 120.361 20.4962 121.277 20.5553 122.061C20.6177 122.925 21.044 123.701 21.9557 123.996L21.956 123.996C22.975 124.325 23.7914 124.167 24.3998 123.729L22.0245 117.581ZM6.14984 112.952C6.14973 112.952 6.14962 112.952 6.14951 112.952C6.14942 112.952 6.14933 112.952 6.14924 112.952L6.42739 113.367L6.14984 112.952ZM23.8774 115.76C23.7711 115.626 23.6629 115.495 23.5528 115.366C23.4454 115.498 23.34 115.631 23.2366 115.766C23.3466 115.897 23.4547 116.03 23.5608 116.166C23.6641 116.029 23.7697 115.893 23.8774 115.76ZM57.2577 137.78C57.1961 137.362 57.1309 136.932 57.062 136.492C56.9528 136.912 56.8484 137.335 56.7491 137.759C56.8211 138.245 56.8883 138.716 56.951 139.169C57.0466 138.703 57.1491 138.241 57.2577 137.78ZM72.6273 104.645C72.6269 104.645 72.6266 104.645 72.6262 104.644C72.6259 104.644 72.6255 104.644 72.6252 104.643L72.3084 105.03L72.6273 104.645ZM58.2944 143.717C58.2948 143.713 58.2953 143.709 58.2958 143.705C58.2951 143.696 58.2962 143.701 58.2946 143.715L57.7978 143.658L58.2944 143.717ZM55.8409 145.704C55.8412 145.705 55.8415 145.705 55.8418 145.705C55.843 145.707 55.8441 145.709 55.8453 145.711L56.2656 145.44L55.8409 145.704ZM26.6443 115.802C26.6443 115.802 26.6443 115.802 26.6443 115.802L26.2931 115.446L26.6443 115.802Z" fill="#2C8560" stroke="#2C8560"/>
<defs>
<linearGradient id="paint0_linear_3286_126276" x1="116.248" y1="10.5194" x2="117.767" y2="270.976" gradientUnits="userSpaceOnUse">
<stop stop-color="#F2F2F2"/>
<stop offset="1" stop-color="#EFEFEF"/>
</linearGradient>
</defs>
</svg>
