<svg width="33" height="32" viewBox="0 0 33 32" fill="none" xmlns="http://www.w3.org/2000/svg">
<path d="M23.0718 5.33334H9.73844C5.73844 5.33334 3.07178 7.33334 3.07178 12V16.7467C3.07178 17.24 3.57844 17.5467 4.01844 17.3467C5.32511 16.7467 6.83178 16.52 8.41845 16.8C11.9251 17.4267 14.4984 20.68 14.4051 24.24C14.3918 24.8 14.3118 25.3467 14.1651 25.88C14.0584 26.2933 14.3918 26.68 14.8184 26.68H23.0718C27.0718 26.68 29.7384 24.68 29.7384 20.0133V12C29.7384 7.33334 27.0718 5.33334 23.0718 5.33334ZM16.4051 19.3333C14.5651 19.3333 13.0718 17.84 13.0718 16C13.0718 14.16 14.5651 12.6667 16.4051 12.6667C18.2451 12.6667 19.7384 14.16 19.7384 16C19.7384 17.84 18.2451 19.3333 16.4051 19.3333ZM26.0718 18.6667C26.0718 19.2133 25.6184 19.6667 25.0718 19.6667C24.5251 19.6667 24.0718 19.2133 24.0718 18.6667V13.3333C24.0718 12.7867 24.5251 12.3333 25.0718 12.3333C25.6184 12.3333 26.0718 12.7867 26.0718 13.3333V18.6667Z" fill="#2C8560"/>
<path d="M7.07161 18.6667C4.12495 18.6667 1.73828 21.0533 1.73828 24C1.73828 25 2.01828 25.9467 2.51161 26.7467C3.43161 28.2933 5.12495 29.3333 7.07161 29.3333C9.01828 29.3333 10.7116 28.2933 11.6316 26.7467C12.1249 25.9467 12.4049 25 12.4049 24C12.4049 21.0533 10.0183 18.6667 7.07161 18.6667ZM9.05828 24.9733H8.07161V26.0133C8.07161 26.56 7.61828 27.0133 7.07161 27.0133C6.52495 27.0133 6.07161 26.56 6.07161 26.0133V24.9733H5.08495C4.53828 24.9733 4.08495 24.52 4.08495 23.9733C4.08495 23.4267 4.53828 22.9733 5.08495 22.9733H6.07161V22.0267C6.07161 21.48 6.52495 21.0267 7.07161 21.0267C7.61828 21.0267 8.07161 21.48 8.07161 22.0267V22.9733H9.05828C9.60495 22.9733 10.0583 23.4267 10.0583 23.9733C10.0583 24.52 9.61828 24.9733 9.05828 24.9733Z" fill="#2C8560"/>
</svg>
