<svg width="95" height="18" viewBox="0 0 95 18" fill="none" xmlns="http://www.w3.org/2000/svg">
<path d="M79.7507 4.66507L79.7513 4.66385C80.4001 3.38662 81.3029 2.38694 82.4599 1.67641L82.4606 1.67597C83.6294 0.961704 85.0147 0.613179 86.6003 0.613179C88.8655 0.613179 90.7456 1.38301 92.2072 2.93141L79.7507 4.66507ZM79.7507 4.66507C79.1045 5.94839 78.7895 7.46482 78.7895 9.20121C78.7895 11.4886 79.5029 13.435 80.9398 15.0148L80.9402 15.0153M79.7507 4.66507L80.9402 15.0153M80.9402 15.0153C82.3869 16.6002 84.2805 17.3868 86.5841 17.3868C88.6808 17.3868 90.5088 16.6835 92.0493 15.2821C93.6282 13.8507 94.3868 11.7404 94.3868 9.02414C94.3868 6.52188 93.6713 4.47719 92.2074 2.93167L80.9402 15.0153ZM7.64314 16.8744L7.73897 17.1212H8.00373H10.1099H10.3736L10.47 16.8757L16.5382 1.41497L16.7455 0.886821H16.1782H14.0881H13.8195L13.7257 1.13853L9.5376 12.3739L9.53721 12.375C9.36525 12.8405 9.20815 13.2876 9.06598 13.716C8.93022 13.2958 8.77823 12.8501 8.61013 12.379L8.60995 12.3785L4.58326 1.14314L4.4914 0.886821H4.21912H2H1.43483L1.63941 1.41367L7.64314 16.8744ZM21.9845 16.7344V17.1212H22.3714H33.9431H34.3299V16.7344V14.9074V14.5206H33.9431H24.8078V10.0307H32.9989H33.3857V9.64386V7.833V7.44618H32.9989H24.8078V3.48742H33.5799H33.9667V3.1006V1.27364V0.886821H33.5799H22.3714H21.9845V1.27364V16.7344ZM40.7339 16.7344V17.1212H41.1207H43.1704H43.5572V16.7344V10.256H45.5509C46.2307 10.256 46.7094 10.333 47.0171 10.4601L47.0171 10.4601L47.0215 10.4619C47.3217 10.5817 47.6758 10.8434 48.0811 11.2886L48.0811 11.2886L48.0843 11.292C48.4881 11.725 49.0663 12.5273 49.8238 13.7222L49.8242 13.7228L51.8739 16.9422L51.9879 17.1212H52.2002H54.7824H55.4894L55.1082 16.5258L52.4131 12.3167C51.7385 11.2623 51.0177 10.4438 50.2451 9.88492C51.2586 9.62997 52.0821 9.21722 52.6926 8.62857C53.5102 7.8403 53.9023 6.77881 53.9023 5.49095C53.9023 4.40268 53.6034 3.45504 52.99 2.67037C52.3982 1.90119 51.6829 1.3929 50.8425 1.18032C50.0591 0.982143 49.1077 0.886821 47.996 0.886821H41.1207H40.7339V1.27364V16.7344ZM60.3124 11.3833L59.9504 11.415L59.9595 11.7783C59.9997 13.3828 60.6024 14.7305 61.7631 15.796L61.7638 15.7967C62.95 16.8802 64.705 17.3868 66.9552 17.3868C68.5911 17.3868 70.0178 16.9594 71.2163 16.0903C72.4519 15.1984 73.0713 13.9441 73.0713 12.3722C73.0713 11.3624 72.7874 10.481 72.2054 9.75021C71.6461 9.03601 70.941 8.5138 70.0961 8.18833C69.2899 7.8778 68.1523 7.55906 66.6932 7.23028L66.692 7.23002C65.2147 6.90201 64.3018 6.57632 63.8775 6.27736C63.4888 6.00344 63.2991 5.63761 63.2991 5.13682C63.2991 4.47788 63.5418 4.02512 64.0153 3.71637C64.5174 3.38891 65.3198 3.19769 66.479 3.19769C67.5805 3.19769 68.3731 3.4351 68.9086 3.85714C69.4357 4.27253 69.7661 4.90823 69.8628 5.82145L69.9025 6.19547L70.2775 6.16634L72.2464 6.01343L72.6165 5.98468L72.603 5.6137C72.5509 4.18172 72.0016 2.98002 70.9595 2.03357C69.9031 1.06928 68.3563 0.621227 66.3903 0.621227C64.8148 0.621227 63.4473 0.999569 62.3075 1.7747L62.3067 1.77521C61.1311 2.57871 60.5485 3.76391 60.5485 5.27364C60.5485 6.33765 60.934 7.27431 61.6878 8.06732C62.4601 8.87968 63.8927 9.48968 65.8838 9.94838L65.8844 9.9485C66.8622 10.1723 67.6617 10.3879 68.2861 10.5946C68.917 10.8035 69.3448 10.9956 69.5962 11.1643L69.5976 11.1652C70.0846 11.489 70.3207 11.9302 70.3207 12.5332C70.3207 13.1176 70.0681 13.6329 69.5035 14.092C68.9676 14.5268 68.109 14.7782 66.8583 14.7782C65.6878 14.7782 64.736 14.5062 63.9796 13.9856C63.2551 13.4818 62.8039 12.6903 62.6585 11.5507L62.6115 11.1818L62.2411 11.2143L60.3124 11.3833ZM90.2422 13.2061L90.242 13.2064C89.4465 14.2949 88.2482 14.8587 86.576 14.8587C85.0574 14.8587 83.8844 14.3385 83.0137 13.313C82.1322 12.2749 81.6773 10.9261 81.6773 9.2334C81.6773 7.4415 82.0856 5.98295 82.8762 4.83281L82.8766 4.83216C83.6315 3.72923 84.8452 3.1494 86.6083 3.1494C87.9894 3.1494 89.139 3.63611 90.0819 4.61625L90.0826 4.61696C91.0054 5.57142 91.499 7.01477 91.499 9.0161C91.499 10.6801 91.0741 12.0696 90.2422 13.2061ZM47.5844 7.71177H43.5572V3.3667H48.0767C49.1473 3.3667 49.8795 3.57079 50.337 3.91632C50.774 4.24639 51.0145 4.74729 51.0145 5.49095C51.0145 6.25148 50.7447 6.7749 50.2289 7.12728C49.6866 7.49774 48.8247 7.71177 47.5844 7.71177Z" fill="black" stroke="black" stroke-width="0.773642"/>
</svg>
